<svg xmlns="http://www.w3.org/2000/svg" viewBox="0 0 120 120" width="120" height="120">
  <defs>
    <linearGradient id="g" x1="0%" y1="0%" x2="100%" y2="100%">
      <stop offset="0%" stop-color="#6366f1"/>
      <stop offset="100%" stop-color="#8b5cf6"/>
    </linearGradient>
  </defs>
  <!-- Single theater mask — pure persona -->
  <!-- Face outline -->
  <path d="M60 8 C38 8 16 28 16 60 C16 82 28 98 42 106 L50 88 L60 98 L70 88 L78 106 C92 98 104 82 104 60 C104 28 82 8 60 8Z"
        fill="none" stroke="url(#g)" stroke-width="2.5" stroke-linejoin="round"/>
  <!-- Left eye -->
  <ellipse cx="44" cy="48" rx="7" ry="8" fill="url(#g)" opacity="0.8"/>
  <!-- Right eye -->
  <ellipse cx="76" cy="48" rx="7" ry="8" fill="url(#g)" opacity="0.8"/>
  <!-- Eye highlights -->
  <ellipse cx="42" cy="46" rx="2.5" ry="2" fill="white" opacity="0.4"/>
  <ellipse cx="74" cy="46" rx="2.5" ry="2" fill="white" opacity="0.4"/>
  <!-- Smile -->
  <path d="M42 72 Q60 86 78 72" fill="none" stroke="url(#g)" stroke-width="2.2" stroke-linecap="round"/>
  <!-- Small nose accent -->
  <path d="M60 56 L58 62 L62 62Z" fill="url(#g)" opacity="0.35"/>
</svg>
